<?xml version="1.0" encoding="UTF-8"?>
<svg xmlns="http://www.w3.org/2000/svg" width="252" height="37" viewBox="0 0 252 37" fill="none"> <path d="M14.484 4.52C17.4533 4.52 19.5727 5.268 20.842 6.764C21.7713 7.89733 22.236 9.314 22.236 11.014C22.236 11.626 22.1793 12.272 22.066 12.952L20.74 20.534C20.2867 23.0953 19.176 25.1467 17.408 26.688C15.64 28.2293 13.3507 29 10.54 29H0.646L4.964 4.52H14.484ZM12.342 9.824H10.132L7.718 23.696H10.948C12.0133 23.696 12.8407 23.4127 13.43 22.846C14.042 22.2567 14.4613 21.3047 14.688 19.99L15.674 14.414C15.7647 13.9153 15.81 13.462 15.81 13.054C15.81 10.9007 14.654 9.824 12.342 9.824ZM33.8281 4.52L29.5441 29H23.3901L27.7081 4.52H33.8281ZM42.8812 29.476C39.6625 29.476 37.4412 28.728 36.2172 27.232C35.3785 26.1893 34.9592 24.7613 34.9592 22.948C34.9592 22.1093 35.0498 21.1913 35.2312 20.194L36.4212 13.394C37.4865 7.31933 41.2038 4.282 47.5732 4.282C50.2025 4.282 52.1972 4.84866 53.5572 5.982C54.9172 7.09267 55.5972 8.62267 55.5972 10.572C55.5972 11.3653 55.4838 12.17 55.2572 12.986C55.0532 13.802 54.8492 14.414 54.6452 14.822L54.3052 15.434H48.2872C48.8765 14.618 49.1712 13.6773 49.1712 12.612C49.1712 10.572 48.3212 9.552 46.6212 9.552C44.3318 9.552 42.9605 10.878 42.5072 13.53L41.3512 20.058C41.2378 20.67 41.1812 21.2707 41.1812 21.86C41.1812 23.424 42.0992 24.206 43.9352 24.206C45.7938 24.206 46.9838 23.2767 47.5052 21.418H44.7172L45.3972 17.644H54.4072L53.8632 20.568L53.6932 21.554C52.7412 26.8353 49.1372 29.476 42.8812 29.476ZM66.8653 4.52L62.5813 29H56.4273L60.7453 4.52H66.8653ZM91.6263 9.824H83.2623L79.8963 29H73.7423L77.1083 9.824H68.7103L69.6623 4.52H92.5783L91.6263 9.824ZM101.203 29L101.407 23.662H95.7291L94.0631 29H87.5691L96.3071 4.52H107.527L107.663 29H101.203ZM99.8091 10.47L97.1231 19.106H101.577L101.951 10.47H99.8091ZM126.384 29H110.88L115.198 4.52H121.318L117.952 23.696H127.336L126.384 29Z" fill="#E70201"/> <path d="M152.841 4.52L145.055 16.862L148.523 29H142.063L139.513 20.024H136.827L135.229 29H129.109L133.427 4.52H139.547L137.745 14.72H139.921L146.381 4.52H152.841ZM174.609 4.52L170.325 29H164.171L165.735 20.16H159.105L157.575 29H151.421L155.739 4.52H161.859L160.023 14.856H166.653L168.489 4.52H174.609ZM187.232 29L187.436 23.662H181.758L180.092 29H173.598L182.336 4.52H193.556L193.692 29H187.232ZM185.838 10.47L183.152 19.106H187.606L187.98 10.47H185.838ZM211.088 4.52C213.672 4.52 215.508 5.08667 216.596 6.22C217.412 7.08133 217.82 8.16933 217.82 9.484C217.82 9.93733 217.774 10.4133 217.684 10.912L217.378 12.544C217.128 13.836 216.641 14.8447 215.916 15.57C215.213 16.2953 214.59 16.658 214.046 16.658L214.012 16.93C214.646 16.93 215.292 17.2813 215.95 17.984C216.607 18.6867 216.936 19.514 216.936 20.466C216.936 20.8513 216.89 21.2593 216.8 21.69L216.596 22.744C216.233 24.6933 215.36 26.2233 213.978 27.334C212.618 28.4447 210.714 29 208.266 29H196.91L201.228 4.52H211.088ZM208.028 19.004H204.798L203.982 23.696H207.212C207.257 23.696 207.302 23.696 207.348 23.696C208.39 23.696 209.218 23.458 209.83 22.982C210.442 22.4833 210.748 21.8827 210.748 21.18C210.748 19.7293 209.841 19.004 208.028 19.004ZM208.946 9.824H206.396L205.512 14.89H208.028C210.204 14.89 211.292 13.938 211.292 12.034C211.292 11.3767 211.088 10.844 210.68 10.436C210.294 10.028 209.716 9.824 208.946 9.824ZM229.693 4.52L225.409 29H219.255L223.573 4.52H229.693ZM244.39 4.52C246.974 4.52 248.81 5.08667 249.898 6.22C250.714 7.08133 251.122 8.16933 251.122 9.484C251.122 9.93733 251.077 10.4133 250.986 10.912L250.68 12.544C250.431 13.836 249.944 14.8447 249.218 15.57C248.516 16.2953 247.892 16.658 247.348 16.658L247.314 16.93C247.949 16.93 248.595 17.2813 249.252 17.984C249.91 18.6867 250.238 19.514 250.238 20.466C250.238 20.8513 250.193 21.2593 250.102 21.69L249.898 22.744C249.536 24.6933 248.663 26.2233 247.28 27.334C245.92 28.4447 244.016 29 241.568 29H230.212L234.53 4.52H244.39ZM241.33 19.004H238.1L237.284 23.696H240.514C240.56 23.696 240.605 23.696 240.65 23.696C241.693 23.696 242.52 23.458 243.132 22.982C243.744 22.4833 244.05 21.8827 244.05 21.18C244.05 19.7293 243.144 19.004 241.33 19.004ZM242.248 9.824H239.698L238.814 14.89H241.33C243.506 14.89 244.594 13.938 244.594 12.034C244.594 11.3767 244.39 10.844 243.982 10.436C243.597 10.028 243.019 9.824 242.248 9.824Z" fill="white"/> </svg>